<!DOCTYPE svg PUBLIC "-//W3C//DTD SVG 20010904//EN" "http://www.w3.org/TR/2001/REC-SVG-20010904/DTD/svg10.dtd">
<svg version="1.0" xmlns="http://www.w3.org/2000/svg" width="822px" height="182px" viewBox="0 0 8220 1820" preserveAspectRatio="xMidYMid meet">
<g id="layer1" fill="#f9f9f9" stroke="none">
 <path d="M2510 1332 c0 -10 347 -852 354 -859 2 -3 9 -2 15 1 6 4 5 19 -3 44 -11 30 -180 443 -308 750 -17 41 -36 72 -44 72 -8 0 -14 -4 -14 -8z"/>
 <path d="M3117 1286 c-2 -6 4 -65 14 -131 34 -222 23 -284 -39 -238 -62 46 -113 159 -127 278 -10 90 -13 95 -46 95 -16 0 -29 -2 -29 -3 0 -2 20 -145 45 -317 25 -172 45 -328 45 -347 0 -33 0 -33 -40 -27 -61 10 -49 -11 18 -30 63 -17 102 -21 102 -8 0 4 -16 101 -35 217 -19 116 -35 217 -34 225 0 8 11 -7 25 -33 38 -73 97 -127 138 -127 65 0 73 39 46 240 -11 85 -20 159 -20 164 0 9 31 4 63 -9 9 -4 17 -3 17 2 0 25 -135 72 -143 49z"/>
 <path d="M3380 1292 c-80 -24 -103 -178 -44 -298 49 -103 140 -159 243 -152 41 3 46 1 49 -19 3 -17 10 -23 29 -23 20 0 24 4 18 18 -26 67 -76 414 -62 429 3 3 19 -2 36 -10 17 -9 33 -11 36 -7 7 12 -29 35 -83 54 -54 19 -57 13 -48 -87 6 -66 5 -70 -8 -42 -7 17 -34 53 -59 81 -45 49 -76 66 -107 56z m90 -78 c42 -36 76 -106 100 -206 26 -107 26 -134 0 -141 -36 -9 -90 13 -128 52 -48 50 -72 118 -72 204 0 59 3 71 25 92 30 31 36 31 75 -1z"/>
 <path d="M3823 1292 c-30 -5 -71 -55 -79 -98 -10 -53 1 -155 20 -192 63 -121 216 -203 270 -143 36 40 -24 72 -65 35 -23 -20 -57 -13 -97 21 -49 41 -68 112 -63 233 1 41 48 92 84 92 13 0 45 -11 70 -24 80 -40 49 10 -33 54 -31 17 -79 27 -107 22z"/>
 <path d="M4342 1268 c-27 -43 -82 -160 -82 -173 0 -5 15 -20 33 -33 55 -37 87 -77 94 -115 7 -46 -14 -57 -63 -34 -70 34 -133 168 -149 315 -7 60 -8 62 -36 62 -16 0 -29 -5 -29 -10 0 -6 14 -122 30 -258 17 -136 34 -289 37 -340 l6 -93 -36 6 c-24 5 -37 3 -37 -3 0 -12 48 -28 114 -39 l39 -6 -7 64 c-4 35 -18 140 -31 233 -14 94 -23 171 -21 173 1 2 17 -19 35 -47 87 -134 217 -174 214 -65 -1 46 -22 76 -83 122 -28 21 -50 43 -50 51 0 17 68 139 82 148 5 3 20 -4 34 -17 32 -30 42 -18 15 20 -20 27 -71 71 -84 71 -3 0 -14 -15 -25 -32z"/>
 <path d="M2256 1204 c-5 -12 42 -138 135 -364 78 -190 146 -351 152 -358 6 -8 14 -9 19 -4 8 8 -272 713 -292 735 -4 5 -10 0 -14 -9z"/>
 </g>
<g id="layer2" fill="#558235" stroke="none">
 <path d="M1755 1676 c-35 -15 -49 -31 -62 -70 -11 -36 -70 -60 -99 -39 -10 7 -39 13 -65 13 -40 0 -51 -4 -73 -31 -31 -37 -33 -67 -6 -102 20 -25 20 -27 3 -64 -15 -31 -24 -39 -50 -41 -36 -4 -83 -51 -83 -83 0 -50 49 -99 99 -99 10 0 24 -15 35 -36 16 -34 16 -38 0 -55 -9 -11 -27 -19 -38 -19 -12 0 -28 -4 -36 -10 -22 -14 -67 18 -74 53 -10 49 -33 67 -86 67 -36 0 -52 -5 -68 -23 -12 -13 -22 -28 -22 -34 0 -25 -71 -31 -90 -8 -14 17 -82 20 -110 5 -26 -14 -42 -75 -28 -106 14 -31 -9 -59 -56 -68 -68 -13 -102 -91 -58 -133 13 -13 27 -23 32 -23 16 0 40 -31 40 -52 0 -11 -9 -31 -20 -45 -27 -34 -25 -55 7 -93 26 -31 29 -32 84 -27 66 6 99 -10 99 -48 0 -30 53 -75 89 -75 32 0 77 31 86 59 8 25 63 36 85 16 26 -24 74 -29 108 -11 37 19 46 43 38 104 -4 41 -4 43 5 15 9 -32 51 -73 75 -73 7 0 16 -18 21 -42 8 -39 6 -44 -19 -68 -16 -14 -31 -39 -34 -56 -5 -25 0 -38 26 -68 27 -31 38 -36 74 -36 22 0 47 4 55 9 8 5 27 0 52 -17 34 -22 39 -30 39 -64 0 -44 31 -83 75 -94 40 -10 98 16 115 53 12 26 22 32 59 37 37 5 48 2 73 -19 23 -19 41 -25 78 -25 42 0 52 4 74 31 27 32 33 67 16 100 -9 15 -5 26 17 54 24 30 34 35 71 35 35 0 49 6 73 29 49 50 33 118 -36 147 -27 11 -34 20 -38 51 -4 32 0 43 24 68 74 78 -3 189 -108 157 -29 -9 -39 -7 -68 11 -29 19 -34 28 -35 60 0 24 8 49 20 64 25 32 26 73 1 105 -19 24 -19 27 -3 61 10 23 23 37 35 37 27 0 75 27 87 49 28 54 -13 128 -75 135 -20 2 -33 13 -45 37 -17 32 -17 35 1 60 26 37 24 72 -7 108 -22 27 -33 31 -73 31 -26 0 -56 -6 -66 -14 -29 -21 -90 7 -101 47 -16 56 -85 87 -139 63z m75 -102 c0 -26 5 -36 23 -43 12 -5 48 -19 80 -31 l58 -23 23 22 c26 24 64 28 72 6 3 -8 -5 -28 -19 -45 l-26 -30 31 -68 c17 -37 33 -69 35 -71 2 -3 22 -7 46 -10 34 -5 43 -10 45 -28 3 -23 -7 -28 -67 -35 -13 -2 -27 -10 -31 -18 -5 -8 -20 -39 -34 -69 l-27 -54 26 -27 c51 -53 11 -93 -46 -46 -29 25 -31 25 -67 10 -20 -9 -56 -23 -79 -31 -39 -13 -43 -18 -43 -48 0 -64 -61 -73 -68 -9 -5 39 -15 49 -61 63 -22 6 -52 18 -67 26 -29 15 -50 9 -74 -19 -18 -23 -47 -20 -53 6 -4 15 1 30 13 43 25 27 25 40 -2 95 -11 25 -24 52 -28 60 -4 8 -23 16 -43 18 -66 6 -78 62 -13 62 34 0 66 21 66 43 0 7 9 29 20 50 25 46 25 59 0 82 -12 11 -20 28 -18 39 4 30 45 33 73 6 l24 -22 58 22 c32 12 68 26 81 31 17 7 22 16 22 43 0 40 24 60 52 45 12 -7 18 -21 18 -45z m-592 -510 c-1 -18 0 -35 2 -37 3 -2 31 -18 64 -36 l59 -33 33 18 c28 15 36 16 46 5 11 -10 7 -17 -16 -36 l-30 -24 14 -58 c16 -71 22 -79 61 -87 22 -4 30 -11 27 -23 -3 -14 -12 -17 -40 -15 -35 3 -39 0 -72 -53 -41 -63 -42 -67 -21 -99 14 -20 14 -25 1 -36 -13 -10 -20 -7 -41 16 -25 26 -28 27 -73 17 -26 -7 -59 -14 -74 -17 -18 -4 -28 -13 -28 -24 0 -10 -6 -27 -14 -38 -19 -25 -40 -7 -40 36 -1 27 -8 35 -58 63 -54 29 -59 31 -94 18 -27 -10 -39 -10 -47 -1 -9 9 -5 17 17 35 l28 23 -16 63 c-16 63 -27 79 -57 79 -19 0 -42 24 -32 33 3 4 23 7 43 7 33 0 39 5 74 58 37 56 38 58 22 85 -27 48 0 64 41 25 21 -20 26 -21 80 -9 73 16 87 23 92 47 10 54 53 52 49 -2z m406 -120 c14 -5 13 -9 -4 -31 -22 -28 -26 -73 -9 -105 9 -17 6 -25 -17 -49 -34 -35 -44 -36 -44 -5 0 30 -34 74 -62 78 -14 2 -24 13 -29 32 -11 39 4 56 50 56 21 0 46 7 57 15 21 16 34 18 58 9z m276 -23 c0 -5 -6 -14 -14 -20 -12 -10 -13 -8 -9 8 5 21 23 30 23 12z m131 -14 c4 -5 3 -24 -2 -41 -5 -17 -9 -32 -9 -33 0 -6 140 -93 149 -93 7 0 25 7 41 15 32 17 55 12 65 -13 4 -12 -5 -26 -29 -47 l-36 -30 12 -77 12 -78 41 -13 c32 -11 40 -19 40 -38 0 -22 -4 -24 -53 -24 -48 0 -56 -3 -74 -30 -12 -16 -35 -45 -51 -62 l-30 -32 18 -34 c10 -19 15 -42 12 -51 -10 -26 -50 -19 -77 14 l-25 31 -75 -12 c-93 -14 -102 -18 -112 -56 -8 -33 -28 -46 -53 -37 -16 7 -18 11 -19 68 -1 35 -6 42 -42 65 -23 14 -53 34 -67 44 -24 17 -26 17 -61 0 -28 -13 -41 -15 -54 -7 -29 19 -25 41 13 64 35 21 36 25 29 59 -4 20 -10 56 -13 80 -6 41 -9 45 -48 58 -47 16 -59 35 -36 58 11 12 26 14 57 10 40 -6 43 -5 81 42 73 87 69 80 51 108 -9 13 -16 34 -16 46 0 20 3 19 36 -11 31 -27 42 -31 73 -26 20 3 64 9 99 14 62 8 82 20 82 53 0 35 52 47 71 16z"/>
 <path d="M1745 1365 c-132 -48 -95 -235 48 -235 128 0 187 156 83 219 -45 27 -86 32 -131 16z m98 -73 c36 -32 5 -102 -46 -102 -57 0 -90 67 -49 102 33 29 60 29 95 0z"/>
 <path d="M1110 893 c-106 -55 -62 -203 60 -203 71 0 129 66 115 130 -15 70 -107 108 -175 73z m88 -59 c27 -19 28 -45 2 -69 -46 -41 -108 26 -65 69 20 20 35 20 63 0z"/>
 <path d="M1863 661 c-93 -43 -107 -137 -30 -210 31 -28 104 -39 147 -21 104 43 108 180 7 229 -53 26 -70 26 -124 2z m116 -77 c12 -15 21 -33 21 -41 0 -23 -47 -63 -75 -63 -31 0 -75 41 -75 70 0 58 91 82 129 34z"/>
 <path d="M6943 1592 c-17 -11 -2 -29 27 -33 24 -4 26 -8 46 -155 32 -225 65 -515 71 -637 3 -59 9 -109 12 -111 3 -2 21 -7 40 -11 l34 -7 -7 113 c-3 63 -9 128 -12 144 -5 28 -3 27 24 -15 88 -133 186 -170 239 -91 62 91 27 308 -67 415 -50 56 -101 78 -181 78 l-67 -1 -12 97 c-6 53 -10 115 -8 137 l3 40 58 3 c42 2 57 7 57 17 0 10 -12 15 -37 16 -21 1 -76 3 -123 5 -47 2 -90 0 -97 -4z m313 -357 c85 -56 143 -281 96 -375 -15 -32 -21 -35 -56 -34 -80 3 -142 107 -171 287 -20 124 -20 135 8 140 37 8 96 0 123 -18z"/>
 <path d="M5300 1287 c-68 -33 -94 -201 -50 -319 53 -143 177 -229 306 -213 51 6 52 6 62 -24 8 -24 17 -31 36 -31 31 0 30 -3 11 51 -41 116 -84 489 -56 489 7 0 25 -7 41 -15 16 -8 31 -11 34 -6 12 19 -134 88 -156 75 -7 -4 -8 -40 -4 -98 l6 -91 -19 35 c-30 55 -102 131 -138 146 -39 17 -42 17 -73 1z m108 -71 c67 -35 119 -150 156 -345 15 -80 10 -91 -41 -91 -82 0 -170 82 -203 188 -34 108 -21 223 27 251 24 14 29 14 61 -3z"/>
 <path d="M6290 1267 c0 -17 9 -88 20 -157 26 -163 27 -266 3 -278 -10 -6 -27 -6 -39 -2 -43 17 -110 120 -140 219 -12 38 -44 208 -44 234 0 4 -16 7 -35 7 -42 0 -42 4 -15 -149 24 -142 35 -252 26 -284 -15 -62 -83 -30 -139 65 -46 78 -71 155 -88 276 l-13 92 -38 0 c-35 0 -38 -2 -33 -22 31 -134 65 -448 49 -448 -5 0 -20 9 -34 20 -28 22 -40 25 -40 10 0 -13 98 -86 134 -100 l29 -11 -7 78 c-4 43 -9 94 -12 113 -5 34 -4 33 24 -17 48 -85 93 -135 139 -155 75 -33 103 -2 103 119 l1 78 23 -45 c33 -62 104 -140 143 -156 63 -27 103 16 103 110 0 23 -9 104 -20 181 -30 211 -28 223 30 190 30 -17 40 -18 40 -4 0 12 -92 54 -137 63 -32 5 -33 4 -33 -27z"/>
 <path d="M6590 1287 c-14 -6 -35 -32 -48 -57 -21 -40 -23 -56 -20 -140 4 -114 32 -183 103 -253 64 -64 105 -81 198 -81 72 0 78 -1 83 -22 6 -22 29 -34 51 -27 9 3 8 15 -3 46 -34 94 -82 487 -60 487 4 0 22 -6 41 -14 46 -20 54 -3 11 23 -33 21 -110 51 -129 51 -6 0 -8 -34 -3 -97 l6 -98 -19 35 c-30 55 -102 131 -138 146 -39 17 -42 17 -73 1z m108 -71 c67 -35 119 -150 156 -345 15 -80 10 -91 -41 -91 -99 0 -192 103 -214 239 -15 87 -5 156 26 187 28 28 36 29 73 10z"/>
 <path d="M7627 1286 c-49 -18 -64 -32 -89 -79 -30 -60 -23 -181 15 -259 32 -65 120 -157 173 -183 50 -24 129 -23 163 2 61 45 87 164 56 268 -34 118 -126 222 -221 251 -56 17 -49 17 -97 0z m149 -55 c20 -12 42 -41 60 -76 23 -48 28 -74 32 -159 5 -114 -8 -163 -52 -191 -52 -35 -133 3 -173 80 -42 79 -57 233 -29 299 27 65 99 85 162 47z"/>
 <path d="M4510 1275 c0 -10 10 -15 29 -15 17 0 32 -4 35 -9 8 -13 76 -613 76 -671 l0 -49 -42 -3 c-23 -2 -43 -8 -45 -14 -6 -17 330 -29 385 -15 86 24 134 88 133 182 0 99 -47 172 -148 232 -18 10 -33 24 -33 31 0 19 85 157 137 221 29 36 65 68 90 80 66 31 56 45 -32 45 l-75 0 -43 -58 c-23 -32 -71 -108 -107 -169 -64 -110 -66 -112 -107 -119 -24 -3 -49 -4 -56 -1 -16 6 -44 249 -33 290 6 25 10 27 61 27 42 0 55 3 55 15 0 13 -22 15 -140 15 -118 0 -140 -2 -140 -15z m397 -401 c80 -65 110 -181 67 -255 -27 -47 -99 -81 -171 -83 l-57 -1 -22 165 c-33 236 -40 213 60 209 77 -4 88 -7 123 -35z"/>
 </g>
<g id="layer3" fill="#010000" stroke="none">
 <path d="M0 910 l0 -910 4110 0 4110 0 0 910 0 910 -4110 0 -4110 0 0 -910z m1860 751 c14 -10 29 -32 34 -48 11 -40 72 -68 101 -47 10 8 40 14 66 14 40 0 51 -4 73 -31 31 -36 33 -71 7 -108 -18 -25 -18 -28 -1 -60 12 -24 25 -35 45 -37 41 -4 85 -51 85 -90 0 -19 62 -185 151 -400 91 -221 147 -370 141 -376 -5 -5 -13 -4 -19 4 -6 7 -74 169 -153 360 l-142 347 -29 -14 c-15 -8 -36 -15 -46 -15 -12 0 -25 -14 -35 -37 -16 -34 -16 -37 3 -61 25 -32 24 -73 -1 -105 -12 -15 -20 -40 -20 -64 1 -32 6 -41 35 -60 29 -18 39 -20 68 -11 105 32 182 -79 108 -157 -24 -25 -28 -36 -24 -68 4 -31 11 -40 38 -51 69 -29 85 -97 36 -147 -24 -23 -38 -29 -73 -29 -37 0 -47 -5 -71 -35 -22 -28 -26 -39 -17 -54 17 -33 11 -68 -16 -100 -22 -27 -32 -31 -74 -31 -37 0 -55 6 -78 25 -25 21 -36 24 -73 19 -37 -5 -47 -11 -59 -37 -17 -37 -75 -63 -115 -53 -44 11 -75 50 -75 94 0 34 -5 42 -39 64 -25 17 -44 22 -52 17 -8 -5 -33 -9 -55 -9 -36 0 -47 5 -74 36 -26 30 -31 43 -26 68 3 17 18 42 34 56 25 24 27 29 19 68 -5 24 -14 42 -21 42 -24 0 -66 41 -75 73 -9 28 -9 26 -5 -15 8 -61 -1 -85 -38 -104 -34 -18 -82 -13 -108 11 -22 20 -77 9 -85 -16 -9 -28 -54 -59 -86 -59 -36 0 -89 45 -89 75 0 38 -33 54 -99 48 -55 -5 -58 -4 -84 27 -32 38 -34 59 -7 93 11 14 20 34 20 45 0 21 -24 52 -40 52 -5 0 -19 10 -32 23 -44 42 -10 120 58 133 47 9 70 37 56 68 -14 31 2 92 28 106 28 15 96 12 110 -5 19 -23 90 -17 90 8 0 6 10 21 22 34 16 18 32 23 68 23 53 0 76 -18 86 -67 7 -35 52 -67 74 -53 8 6 24 10 36 10 11 0 29 8 38 19 16 17 16 21 0 55 -11 21 -25 36 -35 36 -50 0 -99 49 -99 99 0 32 47 79 83 83 26 2 35 10 50 41 17 37 17 39 -3 64 -27 35 -25 65 6 102 22 27 33 31 73 31 26 0 55 -6 65 -13 29 -21 88 3 99 39 13 39 27 55 62 70 35 16 70 11 105 -15z m5303 -70 c25 -1 37 -6 37 -16 0 -10 -15 -15 -57 -17 l-58 -3 -3 -40 c-2 -22 2 -84 8 -137 l12 -97 67 1 c145 1 243 -105 272 -293 33 -209 -70 -311 -194 -192 -22 21 -53 58 -69 83 -27 42 -29 43 -24 15 3 -16 9 -81 12 -144 l7 -113 -34 7 c-19 4 -37 9 -40 11 -3 2 -9 52 -12 111 -6 122 -39 412 -71 637 -20 147 -22 151 -46 155 -29 4 -44 22 -27 33 7 4 50 6 97 4 47 -2 102 -4 123 -5z m-4595 -323 c128 -307 297 -720 308 -750 8 -25 9 -40 3 -44 -6 -3 -13 -4 -15 -1 -7 7 -354 849 -354 859 0 4 6 8 14 8 8 0 27 -31 44 -72z m664 -6 c31 -18 39 -39 11 -27 -32 13 -63 18 -63 9 0 -5 9 -79 20 -164 27 -201 19 -240 -46 -240 -41 0 -100 54 -138 127 -14 26 -25 41 -25 33 -1 -8 15 -109 34 -225 19 -116 35 -213 35 -217 0 -13 -39 -9 -102 8 -67 19 -79 40 -18 30 40 -6 40 -6 40 27 0 19 -20 175 -45 347 -25 172 -45 315 -45 317 0 1 13 3 29 3 33 0 36 -5 46 -95 14 -119 65 -232 127 -278 62 -46 73 16 39 238 -10 66 -16 125 -14 131 5 15 74 0 115 -24z m255 -26 c25 -28 52 -64 59 -81 13 -28 14 -24 8 42 -9 100 -6 106 48 87 54 -19 90 -42 83 -54 -3 -4 -19 -2 -36 7 -17 8 -33 13 -36 10 -14 -15 36 -362 62 -429 6 -14 2 -18 -18 -18 -19 0 -26 6 -29 23 -3 20 -8 22 -49 19 -103 -7 -194 49 -243 152 -59 120 -36 274 44 298 31 10 62 -7 107 -56z m443 34 c82 -44 113 -94 33 -54 -25 13 -57 24 -70 24 -36 0 -83 -51 -84 -92 -5 -121 14 -192 63 -233 40 -34 74 -41 97 -21 41 37 101 5 65 -35 -54 -60 -207 22 -270 143 -19 37 -30 139 -20 192 8 43 49 93 79 98 28 5 76 -5 107 -22z m471 10 c33 -24 74 -78 65 -87 -3 -4 -17 4 -30 16 -14 13 -29 20 -34 17 -14 -9 -82 -131 -82 -148 0 -8 22 -30 50 -51 61 -46 82 -76 83 -122 3 -109 -127 -69 -214 65 -18 28 -34 49 -35 47 -2 -2 7 -79 21 -173 13 -93 27 -198 31 -233 l7 -64 -39 6 c-66 11 -114 27 -114 39 0 6 13 8 37 3 l36 -6 -6 93 c-3 51 -20 204 -37 340 -16 136 -30 252 -30 258 0 5 13 10 29 10 28 0 29 -2 36 -62 16 -147 79 -281 149 -315 49 -23 70 -12 63 34 -7 38 -39 78 -94 115 -18 13 -33 28 -33 33 0 24 94 205 107 205 3 0 18 -9 34 -20z m972 6 c36 -15 108 -91 138 -146 l19 -35 -6 91 c-4 58 -3 94 4 98 22 13 168 -56 156 -75 -3 -5 -18 -2 -34 6 -16 8 -34 15 -41 15 -28 0 15 -373 56 -489 19 -54 20 -51 -11 -51 -19 0 -28 7 -36 31 -10 30 -11 30 -62 24 -129 -16 -253 70 -306 213 -44 118 -18 286 50 319 31 16 34 16 73 -1z m1035 -22 c28 -12 52 -28 52 -33 0 -14 -10 -13 -40 4 -58 33 -60 21 -30 -190 11 -77 20 -158 20 -181 0 -94 -40 -137 -103 -110 -39 16 -110 94 -143 156 l-23 45 -1 -78 c0 -121 -28 -152 -103 -119 -46 20 -91 70 -139 155 -28 50 -29 51 -24 17 3 -19 8 -70 12 -113 l7 -78 -29 11 c-36 14 -134 87 -134 100 0 15 12 12 40 -10 14 -11 29 -20 34 -20 16 0 -18 314 -49 448 -5 20 -2 22 33 22 l38 0 13 -92 c17 -121 42 -198 88 -276 56 -95 124 -127 139 -65 9 32 -2 142 -26 284 -27 153 -27 149 15 149 19 0 35 -3 35 -7 0 -26 32 -196 44 -234 30 -99 97 -202 140 -219 12 -4 29 -4 39 2 24 12 23 115 -3 278 -11 69 -20 140 -20 157 0 31 1 32 33 27 17 -4 56 -17 85 -30z m255 22 c36 -15 108 -91 138 -146 l19 -35 -6 98 c-5 63 -3 97 3 97 19 0 96 -30 129 -51 43 -26 35 -43 -11 -23 -19 8 -37 14 -41 14 -22 0 26 -393 60 -487 11 -31 12 -43 3 -46 -22 -7 -45 5 -51 27 -5 21 -11 22 -83 22 -93 0 -134 17 -198 81 -71 70 -99 139 -103 253 -3 84 -1 100 20 140 20 39 55 69 81 70 4 0 22 -6 40 -14z m1061 0 c95 -29 187 -133 221 -251 31 -104 5 -223 -56 -268 -34 -25 -113 -26 -163 -2 -53 26 -141 118 -173 183 -38 78 -45 199 -15 259 25 47 40 61 89 79 48 17 41 17 97 0z m-2934 -11 c0 -12 -13 -15 -55 -15 -51 0 -55 -2 -61 -27 -11 -41 17 -284 33 -290 7 -3 32 -2 56 1 41 7 43 9 107 119 36 61 84 137 107 169 l43 58 75 0 c88 0 98 -14 32 -45 -25 -12 -61 -44 -90 -80 -52 -64 -137 -202 -137 -221 0 -7 15 -21 33 -31 101 -60 148 -133 148 -232 1 -94 -47 -158 -133 -182 -55 -14 -391 -2 -385 15 2 6 22 12 45 14 l42 3 0 49 c0 58 -68 658 -76 671 -3 5 -18 9 -35 9 -19 0 -29 5 -29 15 0 13 22 15 140 15 118 0 140 -2 140 -15z"/>
 <path d="M1777 1619 c-11 -7 -17 -22 -17 -45 0 -27 -5 -36 -22 -43 -13 -5 -49 -19 -81 -31 l-58 -22 -24 22 c-28 27 -69 24 -73 -6 -2 -11 6 -28 18 -39 25 -23 25 -36 0 -82 -11 -21 -20 -43 -20 -50 0 -22 -32 -43 -66 -43 -65 0 -53 -56 13 -62 20 -2 39 -10 43 -18 4 -8 17 -35 28 -60 27 -55 27 -68 2 -95 -12 -13 -17 -28 -13 -43 6 -26 35 -29 53 -6 24 28 45 34 74 19 15 -8 45 -20 67 -26 46 -14 56 -24 61 -63 7 -64 68 -55 68 9 0 30 4 35 43 48 23 8 59 22 79 31 36 15 38 15 67 -10 57 -47 97 -7 46 46 l-26 27 27 54 c14 30 29 61 34 69 4 8 18 16 31 18 60 7 70 12 67 35 -2 18 -11 23 -45 28 -24 3 -44 7 -46 10 -2 2 -18 34 -35 71 l-31 68 26 30 c14 17 22 37 19 45 -8 22 -46 18 -72 -6 l-23 -22 -58 23 c-32 12 -68 26 -80 31 -18 7 -23 17 -23 43 0 40 -24 61 -53 45z m99 -270 c104 -63 45 -219 -83 -219 -143 0 -180 187 -48 235 45 16 86 11 131 -16z"/>
 <path d="M1780 1312 c-74 -24 -60 -122 17 -122 30 0 63 34 63 63 0 36 -47 70 -80 59z"/>
 <path d="M1202 1097 c-6 -7 -11 -21 -13 -31 -5 -24 -19 -31 -92 -47 -54 -12 -59 -11 -80 9 -41 39 -68 23 -41 -25 16 -27 15 -29 -22 -85 -35 -53 -41 -58 -74 -58 -20 0 -40 -3 -43 -7 -10 -9 13 -33 32 -33 30 0 41 -16 57 -79 l16 -63 -28 -23 c-22 -18 -26 -26 -17 -35 8 -9 20 -9 47 1 35 13 40 11 94 -18 50 -28 57 -36 58 -63 0 -43 21 -61 40 -36 8 11 14 28 14 38 0 11 10 20 28 24 15 3 48 10 74 17 45 10 48 9 73 -17 21 -23 28 -26 41 -16 13 11 13 16 -1 36 -21 32 -20 36 21 99 33 53 37 56 72 53 28 -2 37 1 40 15 3 12 -5 19 -27 23 -39 8 -45 16 -61 87 l-14 58 30 24 c23 19 27 26 16 36 -10 11 -18 10 -46 -5 l-33 -18 -59 33 c-33 18 -61 34 -64 36 -2 2 -3 19 -2 37 3 36 -19 55 -36 33z m49 -223 c95 -91 -21 -231 -141 -169 -81 42 -81 146 0 188 47 24 104 17 141 -19z"/>
 <path d="M1135 834 c-43 -43 19 -110 65 -69 26 24 25 50 -2 69 -28 20 -43 20 -63 0z"/>
 <path d="M1586 935 c-11 -8 -36 -15 -57 -15 -46 0 -61 -17 -50 -56 5 -19 15 -30 29 -32 28 -4 62 -48 62 -78 0 -31 10 -30 44 5 23 24 26 32 17 49 -17 32 -13 77 9 105 17 22 18 26 4 31 -24 9 -37 7 -58 -9z"/>
 <path d="M1897 909 c-4 -16 -3 -18 9 -8 16 13 19 29 5 29 -5 0 -11 -9 -14 -21z"/>
 <path d="M1992 918 c-7 -7 -12 -19 -12 -27 0 -33 -20 -45 -82 -53 -35 -5 -79 -11 -99 -14 -31 -5 -42 -1 -73 26 -33 30 -36 31 -36 11 0 -12 7 -33 16 -46 18 -28 22 -21 -51 -108 -38 -47 -41 -48 -81 -42 -31 4 -46 2 -57 -10 -23 -23 -11 -42 36 -58 39 -13 42 -17 48 -58 3 -24 9 -60 13 -80 7 -34 6 -38 -29 -59 -38 -23 -42 -45 -13 -64 13 -8 26 -6 54 7 35 17 37 17 61 0 14 -10 44 -30 67 -44 36 -23 41 -30 42 -65 1 -57 3 -61 19 -68 25 -9 45 4 53 37 10 38 19 42 112 56 l75 12 25 -31 c27 -33 67 -40 77 -14 3 9 -2 32 -12 51 l-18 34 30 32 c16 17 39 46 51 62 18 27 26 30 74 30 49 0 53 2 53 24 0 19 -8 27 -40 38 l-41 13 -12 78 -12 77 36 30 c24 21 33 35 29 47 -10 25 -33 30 -65 13 -16 -8 -34 -15 -41 -15 -9 0 -149 87 -149 93 0 1 4 16 9 33 5 17 6 36 2 41 -10 17 -46 24 -59 11z m-5 -259 c101 -49 97 -186 -7 -229 -43 -18 -116 -7 -147 21 -77 73 -63 167 30 210 54 24 71 24 124 -2z"/>
 <path d="M1870 590 c-11 -11 -20 -29 -20 -40 0 -29 44 -70 75 -70 28 0 75 40 75 63 0 8 -9 26 -21 41 -26 33 -79 36 -109 6z"/>
 <path d="M7133 1253 c-28 -5 -28 -16 -8 -140 19 -120 49 -198 94 -246 30 -32 44 -40 77 -41 35 -1 41 2 56 34 47 94 -11 319 -96 375 -27 18 -86 26 -123 18z"/>
 <path d="M3395 1215 c-22 -21 -25 -33 -25 -92 0 -86 24 -154 72 -204 60 -62 148 -74 148 -20 0 45 -39 189 -64 240 -24 46 -76 101 -97 101 -6 0 -21 -11 -34 -25z"/>
 <path d="M5347 1219 c-48 -28 -61 -143 -27 -251 33 -106 121 -188 203 -188 51 0 56 11 41 91 -37 195 -89 310 -156 345 -32 17 -37 17 -61 3z"/>
 <path d="M6625 1206 c-31 -31 -41 -100 -26 -187 22 -136 115 -239 214 -239 51 0 56 11 41 91 -37 195 -89 310 -156 345 -37 19 -45 18 -73 -10z"/>
 <path d="M7651 1234 c-13 -9 -29 -32 -37 -50 -28 -66 -13 -220 29 -299 40 -77 121 -115 173 -80 44 28 57 77 52 191 -4 85 -9 111 -32 159 -32 64 -72 95 -126 95 -20 0 -46 -7 -59 -16z"/>
 <path d="M4700 889 c1 -13 11 -98 24 -189 l22 -165 57 1 c72 2 144 36 171 83 43 74 13 190 -67 255 -35 28 -46 31 -123 35 -83 3 -84 3 -84 -20z"/>
 </g>

</svg>